<svg width="59" height="83" viewBox="0 0 59 83" fill="none" xmlns="http://www.w3.org/2000/svg">
<path d="M14.0339 33.0896H11.584C8.27027 33.0896 5.58398 35.7759 5.58398 39.0896V54.5277C5.58398 57.8414 8.27027 60.5277 11.584 60.5277H39.8618C43.1755 60.5277 45.8618 57.8414 45.8618 54.5277V29.4722C45.8618 26.1585 43.1755 23.4722 39.8618 23.4722H20.0339C16.7202 23.4722 14.0339 26.1585 14.0339 29.4722V33.0896ZM14.0339 33.0896V50.0616C14.0339 52.0417 14.0902 54.0218 8.68227 54.0218" stroke="white" stroke-width="3" stroke-linecap="round"/>
<rect x="17.666" y="29.1108" width="12.0833" height="12.0833" rx="1" fill="white"/>
<path d="M34.181 29.9165H41.8338M34.181 34.8757H41.8338M18.4727 45.6248H41.8338M18.4727 50.0554H41.8338M34.181 40.3887H41.8338" stroke="white" stroke-width="3" stroke-linecap="round"/>
<path d="M33.6503 7.63717C36.8652 6.61611 39.5405 5.80831 40.442 1.45926C40.833 5.92138 42.5293 7.37212 46.0577 8.72267C40.8427 8.78735 40.8977 11.1364 39.1755 15.9345C38.3128 10.9102 38.5389 8.32533 33.6503 7.63717Z" fill="white" stroke="white" stroke-width="2" stroke-linecap="round" stroke-linejoin="round"/>
<path d="M21.1757 73.6928C24.3906 72.6718 27.0659 71.864 27.9674 67.5149C28.3584 71.977 30.0547 73.4278 33.5831 74.7783C28.3681 74.843 28.4231 77.192 26.7009 81.9902C25.8382 76.9659 26.0643 74.381 21.1757 73.6928Z" fill="white" stroke="white" stroke-width="2" stroke-linecap="round" stroke-linejoin="round"/>
<path d="M48.7379 16.7528C50.9185 16.0602 52.7331 15.5123 53.3445 12.5625C53.6097 15.589 54.7603 16.573 57.1535 17.4891C53.6163 17.5329 53.6536 19.1262 52.4856 22.3807C51.9004 18.9728 52.0538 17.2196 48.7379 16.7528Z" fill="white" stroke="white" stroke-width="2" stroke-linecap="round" stroke-linejoin="round"/>
<path d="M1.21056 23.1971C3.39116 22.5046 5.20578 21.9567 5.81719 19.0068C6.08241 22.0334 7.23299 23.0174 9.62619 23.9334C6.089 23.9773 6.12628 25.5706 4.95821 28.825C4.37302 25.4172 4.52641 23.6639 1.21056 23.1971Z" fill="white" stroke="white" stroke-width="2" stroke-linecap="round" stroke-linejoin="round"/>
<path d="M35.4371 69.9193C37.6177 69.2267 39.4323 68.6788 40.0438 65.729C40.309 68.7555 41.4596 69.7395 43.8528 70.6556C40.3156 70.6995 40.3528 72.2927 39.1848 75.5472C38.5996 72.1393 38.753 70.3861 35.4371 69.9193Z" fill="white" stroke="white" stroke-width="2" stroke-linecap="round" stroke-linejoin="round"/>
<path d="M10.8766 69.9193C13.0572 69.2267 14.8718 68.6788 15.4832 65.729C15.7484 68.7555 16.899 69.7395 19.2922 70.6556C15.755 70.6995 15.7923 72.2927 14.6242 75.5472C14.039 72.1393 14.1924 70.3861 10.8766 69.9193Z" fill="white" stroke="white" stroke-width="2" stroke-linecap="round" stroke-linejoin="round"/>
</svg>
