<svg width="33" height="25" viewBox="0 0 33 25" fill="none" xmlns="http://www.w3.org/2000/svg">
<g clip-path="url(#clip0)">
<path d="M14.57 24.8239H4C1.79086 24.8239 0 23.033 0 20.8239V12.3039C0 10.2239 0.37 8.49391 1.12 7.11391C1.87 5.73391 2.84 4.59391 4.03 3.68391C5.22 2.77391 6.55 2.04391 8.02 1.48391C8.88886 1.1566 9.75417 0.846995 10.6138 0.559317C11.6276 0.22008 12.7286 0.67249 13.2447 1.60865C13.912 2.81916 13.3396 4.32224 12.1097 4.9531C11.9793 5.02001 11.8527 5.08696 11.73 5.15391C10.96 5.57391 10.33 6.03391 9.84 6.53391C9.35 7.04391 9 7.61391 8.77 8.25391C8.34102 9.4476 9.45827 10.5139 10.7267 10.5139H11.505C13.2033 10.5139 14.58 11.8906 14.58 13.5889V24.8139C14.58 24.8194 14.5755 24.8239 14.57 24.8239ZM32.6 24.8239H22.06C19.8509 24.8239 18.06 23.033 18.06 20.8239V12.3039C18.06 10.2239 18.43 8.49391 19.18 7.11391C19.93 5.73391 20.89 4.59391 22.08 3.68391C23.26 2.77391 24.58 2.04391 26.05 1.48391C26.9211 1.15576 27.7886 0.845415 28.6504 0.557114C29.6617 0.21882 30.7604 0.666549 31.2807 1.59736C31.9593 2.81132 31.3873 4.32671 30.1506 4.96293C30.0269 5.02657 29.9067 5.09024 29.79 5.15391C29.02 5.57391 28.39 6.03391 27.9 6.53391C27.41 7.03391 27.05 7.60391 26.83 8.24391C26.401 9.4376 27.5183 10.5039 28.7867 10.5039H29.55C31.24 10.5039 32.61 11.8739 32.61 13.5639V24.8139C32.61 24.8194 32.6055 24.8239 32.6 24.8239Z" fill="#ED9030"/>
</g>
<defs>
<clipPath id="clip0">
<rect width="32.6" height="24.82" fill="white" transform="translate(0 0.00390625)"/>
</clipPath>
</defs>
</svg>
